# xmcd
#
# Track frame offsets:
#	150
#	21080
#	35106
#	49394
#	60184
#	77905
#	87973
#	101163
#	113036
#	127649
#	139308
#	168158
#	181417
#	201811
#	215552
#
# Disc length: 3111 seconds
#
# Revision: 0
# Processed by: cddbd v1.4PL0 Copyright (c) Steve Scherf et al.
# Submitted via: dBpowerAMP V4.0
#
DISCID=cd0c250f
DTITLE=Covingtons - Country Christmas
DYEAR=1900
DGENRE=Country
TTITLE0=Blue Christmas
TTITLE1=Away in the Manger
TTITLE2=The First Noel
TTITLE3=Go Tell It On The Mountain
TTITLE4=I'll Be Home For Christmas
TTITLE5=O Come All Ye Faithful
TTITLE6=Silent Night
TTITLE7=It Came Upon A Midnight Clear
TTITLE8=Silver Bells
TTITLE9=Joy To The World
TTITLE10=White Christmas
TTITLE11=Greensleeves
TTITLE12=The Christmas Song
TTITLE13=O Christmas Tree
TTITLE14=We WishYou A Merry Christmas
EXTD=
EXTT0=
EXTT1=
EXTT2=
EXTT3=
EXTT4=
EXTT5=
EXTT6=
EXTT7=
EXTT8=
EXTT9=
EXTT10=
EXTT11=
EXTT12=
EXTT13=
EXTT14=
PLAYORDER=
